<?xml version="1.0" encoding="UTF-8"?>
<svg width="24px" height="24px" viewBox="0 0 24 24" version="1.1" xmlns="http://www.w3.org/2000/svg">
    <g stroke="none" stroke-width="1" fill="none" fill-rule="evenodd">
        <path d="M12,2 C10.343,2 9,3.343 9,5 C9,6.657 10.343,8 12,8 C13.657,8 15,6.657 15,5 C15,3.343 13.657,2 12,2 Z M4,7 C2.343,7 1,8.343 1,10 C1,11.657 2.343,13 4,13 C5.657,13 7,11.657 7,10 C7,8.343 5.657,7 4,7 Z M20,7 C18.343,7 17,8.343 17,10 C17,11.657 18.343,13 20,13 C21.657,13 23,11.657 23,10 C23,8.343 21.657,7 20,7 Z M12,16 C10.343,16 9,17.343 9,19 C9,20.657 10.343,22 12,22 C13.657,22 15,20.657 15,19 C15,17.343 13.657,16 12,16 Z" fill="#FF9F5A"/>
    </g>
</svg> 